<svg xmlns="http://www.w3.org/2000/svg" width="407" height="266" viewBox="-203.4 -131.8 406.7 266.5"><polygon points="4,95 -70,81 -70,106 4,121" fill="#4D5F6D"/><polygon points="16,-26 -38,-32 -38,22 16,30" fill="#216181"/><polygon points="44,-36 16,-26 16,30 43,18" fill="#27749B"/><polygon points="9,14 -31,8 -31,80 9,88" fill="#4D5F6D"/><polygon points="16,-26 44,-36 -10,-42 -38,-32" fill="#216181"/><polygon points="27,-16 1,-19 6,0 32,4" fill="#4D5F6D"/><polygon points="31,4 9,14 9,88 30,76" fill="#5D7183"/><polygon points="66,59 4,95 4,121 66,83" fill="#5D7183"/><polygon points="9,14 31,4 -9,-2 -31,8" fill="#4D5F6D"/><polygon points="4,95 66,59 -3,48 -70,81" fill="#4D5F6D"/><polygon points="83,-86 27,-16 32,4 86,-67" fill="#5D7183"/><polygon points="27,-16 83,-86 58,-89 1,-19" fill="#4D5F6D"/><polygon points="81,-80 59,-82 61,-61 83,-59" fill="#216181"/><polygon points="100,-95 81,-80 83,-59 102,-74" fill="#27749B"/><polygon points="81,-80 100,-95 79,-97 59,-82" fill="#216181"/><polygon points="104,-112 93,-113 88,-82 100,-81" fill="#4D5F6D"/><polygon points="109,-110 104,-112 100,-81 105,-79" fill="#5D7183"/><polygon points="104,-112 109,-110 98,-111 93,-113" fill="#4D5F6D"/><polygon points="105,-105 110,-110 99,-111 93,-106" fill="#4D5F6D"/><polygon points="105,-105 93,-106 97,-78 108,-77" fill="#4D5F6D"/><polygon points="110,-110 105,-105 108,-77 113,-82" fill="#5D7183"/></svg>